<svg width="410" height="218" viewBox="0 0 410 218" fill="none" xmlns="http://www.w3.org/2000/svg">
<path d="M24.16 163.12C21.6 163.12 19.5733 162.427 18.08 161.04C16.6933 159.547 16 157.52 16 154.96V96.4H7.04C5.01333 96.4 3.41333 95.8667 2.24 94.8C1.06667 93.6267 0.48 92.08 0.48 90.16C0.48 88.1333 1.06667 86.5867 2.24 85.52C3.41333 84.4533 5.01333 83.92 7.04 83.92H20.64L16 88.24V82.48C16 71.92 18.6133 63.9733 23.84 58.64C29.0667 53.2 36.6933 50 46.72 49.04L51.68 48.72C53.4933 48.5067 54.9333 48.7733 56 49.52C57.0667 50.2667 57.76 51.2267 58.08 52.4C58.4 53.5733 58.4 54.8 58.08 56.08C57.8667 57.2533 57.3333 58.32 56.48 59.28C55.6267 60.24 54.56 60.7733 53.28 60.88L50.24 61.04C43.9467 61.5733 39.36 63.3867 36.48 66.48C33.6 69.4667 32.16 74.0533 32.16 80.24V86.48L29.92 83.92H47.68C49.92 83.92 51.5733 84.4533 52.64 85.52C53.8133 86.5867 54.4 88.1333 54.4 90.16C54.4 92.08 53.8133 93.6267 52.64 94.8C51.5733 95.8667 49.92 96.4 47.68 96.4H32.16V154.96C32.16 160.4 29.4933 163.12 24.16 163.12ZM91.0075 163.44C85.5675 163.44 80.6608 162.373 76.2875 160.24C72.0208 158.107 68.6608 155.227 66.2075 151.6C63.7542 147.973 62.5275 143.867 62.5275 139.28C62.5275 133.52 63.9675 128.987 66.8475 125.68C69.8342 122.267 74.6875 119.867 81.4075 118.48C88.2342 116.987 97.4075 116.24 108.928 116.24H116.448V126.16H109.088C101.408 126.16 95.3275 126.533 90.8475 127.28C86.3675 128.027 83.1675 129.307 81.2475 131.12C79.4342 132.827 78.5275 135.227 78.5275 138.32C78.5275 142.373 79.9142 145.68 82.6875 148.24C85.4608 150.693 89.3008 151.92 94.2075 151.92C98.1542 151.92 101.621 151.013 104.608 149.2C107.594 147.28 109.941 144.72 111.648 141.52C113.461 138.32 114.368 134.64 114.368 130.48V112.08C114.368 106 113.088 101.627 110.528 98.96C107.968 96.2933 103.754 94.96 97.8875 94.96C94.4742 94.96 90.9008 95.3867 87.1675 96.24C83.5408 97.0933 79.7542 98.5333 75.8075 100.56C73.9942 101.413 72.4475 101.68 71.1675 101.36C69.8875 101.04 68.8742 100.347 68.1275 99.28C67.3808 98.1067 66.9542 96.88 66.8475 95.6C66.8475 94.2133 67.1675 92.88 67.8075 91.6C68.5542 90.32 69.7808 89.36 71.4875 88.72C76.1808 86.48 80.8208 84.88 85.4075 83.92C89.9942 82.96 94.3142 82.48 98.3675 82.48C105.514 82.48 111.381 83.6 115.968 85.84C120.661 88.08 124.128 91.4933 126.368 96.08C128.608 100.667 129.728 106.587 129.728 113.84V154.96C129.728 157.52 129.088 159.547 127.808 161.04C126.528 162.427 124.661 163.12 122.208 163.12C119.861 163.12 117.994 162.427 116.608 161.04C115.221 159.547 114.528 157.52 114.528 154.96V144.56H115.968C115.114 148.507 113.514 151.92 111.168 154.8C108.928 157.573 106.101 159.707 102.688 161.2C99.2742 162.693 95.3808 163.44 91.0075 163.44ZM159.985 163.12C157.425 163.12 155.452 162.427 154.065 161.04C152.678 159.547 151.985 157.52 151.985 154.96V56.24C151.985 53.5733 152.678 51.5467 154.065 50.16C155.452 48.7733 157.425 48.08 159.985 48.08C162.545 48.08 164.518 48.7733 165.905 50.16C167.398 51.5467 168.145 53.5733 168.145 56.24V118H168.465L198.385 88.24C200.092 86.5333 201.638 85.2 203.025 84.24C204.412 83.28 206.225 82.8 208.465 82.8C210.705 82.8 212.412 83.3867 213.585 84.56C214.758 85.7333 215.345 87.1733 215.345 88.88C215.345 90.48 214.545 92.1333 212.945 93.84L181.265 125.2V117.68L215.825 152.08C217.532 153.787 218.332 155.493 218.225 157.2C218.118 158.907 217.425 160.347 216.145 161.52C214.865 162.587 213.265 163.12 211.345 163.12C208.892 163.12 206.918 162.64 205.425 161.68C204.038 160.72 202.385 159.28 200.465 157.36L168.465 126.32H168.145V154.96C168.145 160.4 165.425 163.12 159.985 163.12ZM260.439 163.44C255.745 163.44 250.892 162.907 245.879 161.84C240.972 160.773 236.439 158.96 232.279 156.4C230.892 155.44 229.932 154.373 229.399 153.2C228.865 152.027 228.652 150.853 228.759 149.68C228.972 148.4 229.452 147.333 230.199 146.48C231.052 145.52 232.065 144.933 233.239 144.72C234.519 144.507 235.852 144.773 237.239 145.52C241.399 147.867 245.399 149.52 249.239 150.48C253.079 151.333 256.865 151.76 260.599 151.76C266.252 151.76 270.519 150.747 273.399 148.72C276.279 146.693 277.719 143.973 277.719 140.56C277.719 137.787 276.759 135.653 274.839 134.16C272.919 132.56 270.039 131.333 266.199 130.48L250.999 127.44C244.385 126.053 239.372 123.6 235.959 120.08C232.545 116.56 230.839 112.08 230.839 106.64C230.839 101.733 232.172 97.4667 234.839 93.84C237.505 90.2133 241.239 87.44 246.039 85.52C250.839 83.4933 256.385 82.48 262.679 82.48C267.372 82.48 271.799 83.0667 275.959 84.24C280.119 85.4133 283.959 87.1733 287.479 89.52C288.865 90.2667 289.772 91.28 290.199 92.56C290.625 93.7333 290.679 94.9067 290.359 96.08C290.145 97.2533 289.612 98.32 288.759 99.28C287.905 100.133 286.839 100.667 285.559 100.88C284.385 100.987 283.052 100.667 281.559 99.92C278.359 97.8933 275.159 96.4533 271.959 95.6C268.865 94.7467 265.772 94.32 262.679 94.32C257.025 94.32 252.759 95.3867 249.879 97.52C247.105 99.5467 245.719 102.32 245.719 105.84C245.719 108.507 246.572 110.693 248.279 112.4C249.985 114.107 252.652 115.333 256.279 116.08L271.479 119.12C278.412 120.507 283.639 122.853 287.159 126.16C290.785 129.467 292.599 133.947 292.599 139.6C292.599 146.96 289.665 152.773 283.799 157.04C277.932 161.307 270.145 163.44 260.439 163.44Z" fill="#0A0A0A"/>
<path fill-rule="evenodd" clip-rule="evenodd" d="M360.273 162C360.198 161.501 360.16 160.967 360.16 160.4V82H340C334.477 82 330 86.4772 330 92V152C330 157.523 334.477 162 340 162H360.273ZM373.014 162H400C402.362 162 404.533 161.181 406.244 159.812L373.44 129.52H373.12V160.4C373.12 160.97 373.085 161.503 373.014 162ZM410 147.377V103.752L386.924 125.664L410 147.377ZM409.444 88.7039C408.082 84.8005 404.368 82 400 82H373.12V122.8H373.44L406.24 91.44C407.448 90.3187 408.516 89.4067 409.444 88.7039Z" fill="#00AAD2"/>
</svg>
